<svg width="176" height="63" viewBox="0 0 176 63" fill="none" xmlns="http://www.w3.org/2000/svg">
  <rect width="176" height="63" fill="#111517"/>
  <path d="M28.5312 33.5859C28.3203 35.3906 27.6523 36.7852 26.5273 37.7695C25.4102 38.7461 23.9219 39.2344 22.0625 39.2344C20.0469 39.2344 18.4297 38.5117 17.2109 37.0664C16 35.6211 15.3945 33.6875 15.3945 31.2656V29.625C15.3945 28.0391 15.6758 26.6445 16.2383 25.4414C16.8086 24.2383 17.6133 23.3164 18.6523 22.6758C19.6914 22.0273 20.8945 21.7031 22.2617 21.7031C24.0742 21.7031 25.5273 22.2109 26.6211 23.2266C27.7148 24.2344 28.3516 25.6328 28.5312 27.4219H26.2695C26.0742 26.0625 25.6484 25.0781 24.9922 24.4688C24.3438 23.8594 23.4336 23.5547 22.2617 23.5547C20.8242 23.5547 19.6953 24.0859 18.875 25.1484C18.0625 26.2109 17.6562 27.7227 17.6562 29.6836V31.3359C17.6562 33.1875 18.043 34.6602 18.8164 35.7539C19.5898 36.8477 20.6719 37.3945 22.0625 37.3945C23.3125 37.3945 24.2695 37.1133 24.9336 36.5508C25.6055 35.9805 26.0508 34.9922 26.2695 33.5859H28.5312ZM30.6992 32.543C30.6992 31.3008 30.9414 30.1836 31.4258 29.1914C31.918 28.1992 32.5977 27.4336 33.4648 26.8945C34.3398 26.3555 35.3359 26.0859 36.4531 26.0859C38.1797 26.0859 39.5742 26.6836 40.6367 27.8789C41.707 29.0742 42.2422 30.6641 42.2422 32.6484V32.8008C42.2422 34.0352 42.0039 35.1445 41.5273 36.1289C41.0586 37.1055 40.3828 37.8672 39.5 38.4141C38.625 38.9609 37.6172 39.2344 36.4766 39.2344C34.7578 39.2344 33.3633 38.6367 32.293 37.4414C31.2305 36.2461 30.6992 34.6641 30.6992 32.6953V32.543ZM32.8789 32.8008C32.8789 34.207 33.2031 35.3359 33.8516 36.1875C34.5078 37.0391 35.3828 37.4648 36.4766 37.4648C37.5781 37.4648 38.4531 37.0352 39.1016 36.1758C39.75 35.3086 40.0742 34.0977 40.0742 32.543C40.0742 31.1523 39.7422 30.0273 39.0781 29.168C38.4219 28.3008 37.5469 27.8672 36.4531 27.8672C35.3828 27.8672 34.5195 28.293 33.8633 29.1445C33.207 29.9961 32.8789 31.2148 32.8789 32.8008ZM47 26.3203L47.0586 27.7266C47.9883 26.6328 49.2422 26.0859 50.8203 26.0859C52.5938 26.0859 53.8008 26.7656 54.4414 28.125C54.8633 27.5156 55.4102 27.0234 56.082 26.6484C56.7617 26.2734 57.5625 26.0859 58.4844 26.0859C61.2656 26.0859 62.6797 27.5586 62.7266 30.5039V39H60.5586V30.6328C60.5586 29.7266 60.3516 29.0508 59.9375 28.6055C59.5234 28.1523 58.8281 27.9258 57.8516 27.9258C57.0469 27.9258 56.3789 28.168 55.8477 28.6523C55.3164 29.1289 55.0078 29.7734 54.9219 30.5859V39H52.7422V30.6914C52.7422 28.8477 51.8398 27.9258 50.0352 27.9258C48.6133 27.9258 47.6406 28.5312 47.1172 29.7422V39H44.9492V26.3203H47ZM76.7188 32.8008C76.7188 34.7305 76.2773 36.2852 75.3945 37.4648C74.5117 38.6445 73.3164 39.2344 71.8086 39.2344C70.2695 39.2344 69.0586 38.7461 68.1758 37.7695V43.875H66.0078V26.3203H67.9883L68.0938 27.7266C68.9766 26.6328 70.2031 26.0859 71.7734 26.0859C73.2969 26.0859 74.5 26.6602 75.3828 27.8086C76.2734 28.957 76.7188 30.5547 76.7188 32.6016V32.8008ZM74.5508 32.5547C74.5508 31.125 74.2461 29.9961 73.6367 29.168C73.0273 28.3398 72.1914 27.9258 71.1289 27.9258C69.8164 27.9258 68.832 28.5078 68.1758 29.6719V35.7305C68.8242 36.8867 69.8164 37.4648 71.1523 37.4648C72.1914 37.4648 73.0156 37.0547 73.625 36.2344C74.2422 35.4062 74.5508 34.1797 74.5508 32.5547ZM87.3125 39C87.1875 38.75 87.0859 38.3047 87.0078 37.6641C86 38.7109 84.7969 39.2344 83.3984 39.2344C82.1484 39.2344 81.1211 38.8828 80.3164 38.1797C79.5195 37.4688 79.1211 36.5703 79.1211 35.4844C79.1211 34.1641 79.6211 33.1406 80.6211 32.4141C81.6289 31.6797 83.043 31.3125 84.8633 31.3125H86.9727V30.3164C86.9727 29.5586 86.7461 28.957 86.293 28.5117C85.8398 28.0586 85.1719 27.832 84.2891 27.832C83.5156 27.832 82.8672 28.0273 82.3438 28.418C81.8203 28.8086 81.5586 29.2812 81.5586 29.8359H79.3789C79.3789 29.2031 79.6016 28.5938 80.0469 28.0078C80.5 27.4141 81.1094 26.9453 81.875 26.6016C82.6484 26.2578 83.4961 26.0859 84.418 26.0859C85.8789 26.0859 87.0234 26.4531 87.8516 27.1875C88.6797 27.9141 89.1094 28.918 89.1406 30.1992V36.0352C89.1406 37.1992 89.2891 38.125 89.5859 38.8125V39H87.3125ZM83.7148 37.3477C84.3945 37.3477 85.0391 37.1719 85.6484 36.8203C86.2578 36.4688 86.6992 36.0117 86.9727 35.4492V32.8477H85.2734C82.6172 32.8477 81.2891 33.625 81.2891 35.1797C81.2891 35.8594 81.5156 36.3906 81.9688 36.7734C82.4219 37.1562 83.0039 37.3477 83.7148 37.3477ZM94.5898 26.3203L94.6602 27.9141C95.6289 26.6953 96.8945 26.0859 98.457 26.0859C101.137 26.0859 102.488 27.5977 102.512 30.6211V39H100.344V30.6094C100.336 29.6953 100.125 29.0195 99.7109 28.582C99.3047 28.1445 98.668 27.9258 97.8008 27.9258C97.0977 27.9258 96.4805 28.1133 95.9492 28.4883C95.418 28.8633 95.0039 29.3555 94.707 29.9648V39H92.5391V26.3203H94.5898ZM109.93 35.8242L112.883 26.3203H115.203L110.105 40.957C109.316 43.0664 108.062 44.1211 106.344 44.1211L105.934 44.0859L105.125 43.9336V42.1758L105.711 42.2227C106.445 42.2227 107.016 42.0742 107.422 41.7773C107.836 41.4805 108.176 40.9375 108.441 40.1484L108.922 38.8594L104.398 26.3203H106.766L109.93 35.8242ZM116.691 34.418C116.691 33.5977 116.918 32.8438 117.371 32.1562C117.832 31.4688 118.707 30.668 119.996 29.7539C119.238 28.832 118.73 28.0898 118.473 27.5273C118.215 26.9648 118.086 26.4062 118.086 25.8516C118.086 24.5547 118.469 23.5391 119.234 22.8047C120 22.0703 121.039 21.7031 122.352 21.7031C123.523 21.7031 124.492 22.0469 125.258 22.7344C126.023 23.4141 126.406 24.2734 126.406 25.3125C126.406 26 126.23 26.6367 125.879 27.2227C125.535 27.8008 124.93 28.4102 124.062 29.0508L122.809 29.9766L126.605 34.5117C127.137 33.4961 127.402 32.3672 127.402 31.125H129.359C129.359 33.1172 128.879 34.7695 127.918 36.082L130.355 39H127.754L126.617 37.6523C126.039 38.168 125.359 38.5625 124.578 38.8359C123.805 39.1016 123.016 39.2344 122.211 39.2344C120.547 39.2344 119.211 38.793 118.203 37.9102C117.195 37.0273 116.691 35.8633 116.691 34.418ZM122.211 37.4648C123.359 37.4648 124.41 37.0273 125.363 36.1523L121.203 31.1719L120.816 31.4531C119.512 32.4141 118.859 33.4023 118.859 34.418C118.859 35.3398 119.156 36.0781 119.75 36.6328C120.352 37.1875 121.172 37.4648 122.211 37.4648ZM120.254 25.7812C120.254 26.5312 120.715 27.4688 121.637 28.5938L123.02 27.6211C123.551 27.2461 123.914 26.8906 124.109 26.5547C124.305 26.2109 124.402 25.7969 124.402 25.3125C124.402 24.7891 124.207 24.3555 123.816 24.0117C123.426 23.6602 122.934 23.4844 122.34 23.4844C121.699 23.4844 121.191 23.7031 120.816 24.1406C120.441 24.5703 120.254 25.1172 120.254 25.7812ZM137.164 37.4648C137.938 37.4648 138.613 37.2305 139.191 36.7617C139.77 36.293 140.09 35.707 140.152 35.0039H142.203C142.164 35.7305 141.914 36.4219 141.453 37.0781C140.992 37.7344 140.375 38.2578 139.602 38.6484C138.836 39.0391 138.023 39.2344 137.164 39.2344C135.438 39.2344 134.062 38.6602 133.039 37.5117C132.023 36.3555 131.516 34.7773 131.516 32.7773V32.4141C131.516 31.1797 131.742 30.082 132.195 29.1211C132.648 28.1602 133.297 27.4141 134.141 26.8828C134.992 26.3516 135.996 26.0859 137.152 26.0859C138.574 26.0859 139.754 26.5117 140.691 27.3633C141.637 28.2148 142.141 29.3203 142.203 30.6797H140.152C140.09 29.8594 139.777 29.1875 139.215 28.6641C138.66 28.1328 137.973 27.8672 137.152 27.8672C136.051 27.8672 135.195 28.2656 134.586 29.0625C133.984 29.8516 133.684 30.9961 133.684 32.4961V32.9062C133.684 34.3672 133.984 35.4922 134.586 36.2812C135.188 37.0703 136.047 37.4648 137.164 37.4648ZM144.066 32.543C144.066 31.3008 144.309 30.1836 144.793 29.1914C145.285 28.1992 145.965 27.4336 146.832 26.8945C147.707 26.3555 148.703 26.0859 149.82 26.0859C151.547 26.0859 152.941 26.6836 154.004 27.8789C155.074 29.0742 155.609 30.6641 155.609 32.6484V32.8008C155.609 34.0352 155.371 35.1445 154.895 36.1289C154.426 37.1055 153.75 37.8672 152.867 38.4141C151.992 38.9609 150.984 39.2344 149.844 39.2344C148.125 39.2344 146.73 38.6367 145.66 37.4414C144.598 36.2461 144.066 34.6641 144.066 32.6953V32.543ZM146.246 32.8008C146.246 34.207 146.57 35.3359 147.219 36.1875C147.875 37.0391 148.75 37.4648 149.844 37.4648C150.945 37.4648 151.82 37.0352 152.469 36.1758C153.117 35.3086 153.441 34.0977 153.441 32.543C153.441 31.1523 153.109 30.0273 152.445 29.168C151.789 28.3008 150.914 27.8672 149.82 27.8672C148.75 27.8672 147.887 28.293 147.23 29.1445C146.574 29.9961 146.246 31.2148 146.246 32.8008Z" fill="#FFFEFE"/>
</svg>
